PathFileType	4	(X/Y/Z)	37_1_42_p0_0-824.trc
DataRate	CameraRate	NumFrames	NumMarkers	Units	OrigDataRate	OrigDataStartFrame	OrigNumFrames
59.0	59.0	5	27	m	59.0	515	825
Frame#	Time	RHip			RKnee			RAnkle			RBigToe			RSmallToe			RHeel			LHip			LKnee			LAnkle			LBigToe			LSmallToe			LHeel			Neck			Head			Nose			RShoulder			RElbow			RWrist			RThumb			RIndex			RPinky			LShoulder			LElbow			LWrist			LThumb			LIndex			LPinky			
		X1	Y1	Z1	X2	Y2	Z2	X3	Y3	Z3	X4	Y4	Z4	X5	Y5	Z5	X6	Y6	Z6	X7	Y7	Z7	X8	Y8	Z8	X9	Y9	Z9	X10	Y10	Z10	X11	Y11	Z11	X12	Y12	Z12	X13	Y13	Z13	X14	Y14	Z14	X15	Y15	Z15	X16	Y16	Z16	X17	Y17	Z17	X18	Y18	Z18	X19	Y19	Z19	X20	Y20	Z20	X21	Y21	Z21	X22	Y22	Z22	X23	Y23	Z23	X24	Y24	Z24	X25	Y25	Z25	X26	Y26	Z26	X27	Y27	Z27	
515	8.728813559322035	0.3284711022711246	0.6396122109086089	0.49276019824424727	0.33484747107526275	0.814372398817247	0.9434455960225864	0.39886063671349226	1.0242210829585523	1.3724713089051674	0.3295448627530587	0.8739314013448721	1.4341157229319512	0.39978090799303523	0.8466588293546159	1.4231814699460252	0.3915922296361331	1.1432005577868622	1.4227445228371098	0.14672553498115112	0.7053574814060667	0.47723867101307205	0.16494651391800733	0.9022733287994286	0.9398201780147145	0.18865131205056054	1.0559606092129228	1.356601448786068	0.1660645601000897	0.8709475408311745	1.4108932991720688	0.11150284671009987	0.9375941352551346	1.414622499638685	0.21814024358663048	1.1382192976523422	1.4218875535402924	0.3265255717177471	0.47477796074847967	-0.0005410665041248491	0.3994064177999696	0.35160201760264553	-0.20636120154318685	0.3470591817883984	0.3427325053888497	-0.06975942970063412	0.4732510479568086	0.527985033104436	0.09147244669768692	0.6654749514947506	0.48330035951399397	0.238038580983062	0.8567021246662756	0.4173460941270011	0.31918550267934703	0.9379248515038647	0.298437824673451	0.3537707354378136	1.0008657829158027	0.3265424562192034	0.3670932857479915	1.0059100507655305	0.40858498124117054	0.3931288744842865	0.16192249199999006	0.5314298912739289	-0.010982801807848828	-0.09283503066068068	0.522888011048815	-0.06133796385951428	-0.29046454715072517	0.45570054668748206	-0.14556634881252808	-0.37263356073956544	0.42831144021329565	-0.15771987068016272	-0.3835556606632476	0.4171838220551424	-0.19742726773873334	-0.41185059191937123	0.4059193976431022	-0.21057388012886835
516	8.745762711864407	0.32850555217782595	0.6398646225083051	0.4928005847165593	0.3349856842983803	0.8148575174175464	0.9439099202774182	0.3969523849927732	1.0428525177499957	1.3774542360044617	0.32995951494510867	0.8736147304169861	1.438252298051024	0.40012028340163724	0.8473410214315608	1.4233914193944932	0.3866542848483918	1.14265822385226	1.422346181223959	0.15138428542337032	0.7190791383365971	0.4775450184453846	0.16904912125667954	0.8891461452173773	0.9425095731841168	0.18845141272911214	1.056237203936277	1.3566350663180529	0.166007817876871	0.8707050156377332	1.4106349807303238	0.11306631780850954	0.9395056811750105	1.4112125591544311	0.21793101260102743	1.1381301337361969	1.421777087181759	0.33067595834757463	0.4755038542444622	-0.0006959589835632626	0.3994182319066885	0.35151293229777936	-0.2064115294705548	0.3467636809780672	0.3414764035814446	-0.0728510317637427	0.4733020130554229	0.5278815232711013	0.09132900495955822	0.6714883635681946	0.5078480789325294	0.23998980565768124	0.8633193203852213	0.42740001038972075	0.3188939982184556	0.9455396214898044	0.3127087477626053	0.3535632514635846	1.001264636965127	0.32661188926868784	0.3634873557877529	1.0059042257255293	0.40803923641113926	0.38967697007470253	0.16650845020923075	0.5430681148241415	-0.012747391942591623	-0.08958537303652854	0.5344745138995362	-0.0634641774144624	-0.2904040196526786	0.45609649547305725	-0.14572758547156034	-0.37342036421886216	0.42789280163112203	-0.16089907382326965	-0.38557078223583063	0.40229893859091304	-0.19820368325821033	-0.41187137864185586	0.40599654576096933	-0.20763065333137418
517	8.76271186440678	0.3285404597065189	0.6395539927045922	0.4963765734937469	0.33484278338547235	0.8145669032419511	0.9438211196411778	0.39696810112577124	1.0428716511200138	1.3775103682633187	0.3299068274413484	0.8733878228547832	1.438297721615733	0.4000049717319883	0.8473939733776213	1.4235636705131158	0.39136676639113577	1.1436473909999125	1.423059277290681	0.1467424112565886	0.705692281231454	0.4771920247652383	0.16814364504676102	0.8863491124626983	0.937449899749882	0.18828492201967123	1.0560405511120068	1.3565296278023413	0.16169812950792692	0.8566313513234672	1.406119663577235	0.11221840710769909	0.9356478289135176	1.4101067588811538	0.21764824025067195	1.1381752614410898	1.4219910599232763	0.3306123233424026	0.47552397879357483	-0.0006249402015150769	0.39798133963996246	0.36333431792436127	-0.2090164259254424	0.34669860367144395	0.3413088849675584	-0.07281694971608353	0.4679502930615499	0.5174283373051373	0.09262266454388872	0.6715266550776382	0.5079516051190288	0.23998996882619733	0.8639748234832387	0.4418838679615116	0.3183056414959525	0.9461952996416982	0.32681485082771067	0.3526335043369236	1.0026394624915786	0.34002946457528604	0.36300288786518825	1.0119858015995964	0.41705887219664345	0.38925645850068136	0.16271603474148777	0.5418257872568949	-0.012527346020889113	-0.0895006269803979	0.534653633811414	-0.06349448877642974	-0.2904772829937047	0.4559631798368885	-0.14573285816560355	-0.37604826603954533	0.42650333229817966	-0.15717453112237031	-0.38549066879395166	0.40266865836268995	-0.19815275969343377	-0.4117113024704299	0.4053997926347817	-0.21081181674634625
518	8.779661016949152	0.3284735189593703	0.6397230797642067	0.4927446822263005	0.3349522141934785	0.8149546432632289	0.9440699541904578	0.39697806933955354	1.0428779586553933	1.3775324218663043	0.3297150079874563	0.8735946693893991	1.4384617841154672	0.39984138104094613	0.8461414328631687	1.4276156479154158	0.39126905962098685	1.143065383692015	1.4227371900080117	0.1514262387564847	0.7190647471836019	0.47746807775477323	0.16491278489780012	0.9023891308289493	0.9398598637682469	0.18733070004030444	1.0526591924644229	1.3513345038020843	0.16606682268937936	0.8709270042867966	1.4107890622062285	0.11239390003069956	0.940512353731567	1.4196134488547438	0.21659253780581636	1.1354177410897754	1.4177256887324703	0.3306823780173655	0.47552893056493145	-0.0006208362684195312	0.3980648950867127	0.36327461906156266	-0.208981721932589	0.34669022073428934	0.341190724849053	-0.07282525054124606	0.47330891647129714	0.5278102041952079	0.09134141266366405	0.6715025191728063	0.5080162697582773	0.2399984210181704	0.8639841730003743	0.44221434253757946	0.3181937803037156	0.9402528630223947	0.35493468143816653	0.34452597469804386	1.0026119282960448	0.34053983310059666	0.36279559229772296	1.01547645302615	0.415059762539047	0.3890772570337692	0.1627230241461583	0.5418384030870927	-0.012479368496423606	-0.0927396901061779	0.5218664233943247	-0.06102360694917869	-0.2905556561525355	0.4558465768155644	-0.1456545268834622	-0.37581890616119545	0.425708258463275	-0.16017402703941436	-0.3895383932901561	0.4019207122652539	-0.19825992282918342	-0.4118911878657705	0.4055039375217997	-0.2104860855841211
519	8.796610169491526	0.3284331274997033	0.6396815458831316	0.49269053887783393	0.3338726518998075	0.8118836116154946	0.9393154040275595	0.39697130049690155	1.0428750839684344	1.3774987284243665	0.32961959930690177	0.8727941266642835	1.4382436878809606	0.3997217522183641	0.8469556392802023	1.423537609470605	0.39117403408340573	1.1429439174367262	1.422643815581386	0.14671617233376275	0.7054380114105712	0.4769377362810049	0.168152217638501	0.8863842542365461	0.9375384046439599	0.18847761028701024	1.0561826203680786	1.3567057530168523	0.16706721642835298	0.873858509865268	1.4153836686974377	0.11564314036947261	0.9233033390316709	1.414451853559712	0.21766291130750812	1.1388213743179694	1.4224180763760608	0.3306758320132985	0.4753799697484088	-0.000547874012780266	0.3998007671307255	0.3518252955582362	-0.20619740868357772	0.3508464025718178	0.3428966079396589	-0.06987902837332108	0.4733008604749183	0.5277799731865538	0.091353790217448	0.6716258057610969	0.5082462190946734	0.24001118834941434	0.8715070827478266	0.453645635414676	0.3208342771314853	0.9371538291662335	0.35547244948996476	0.34460174629697876	1.0028348818226416	0.3407952758685317	0.36269994108858905	1.015105648701208	0.41471976468008326	0.38883416253324	0.16266013008364902	0.5416664224388384	-0.012481822140578157	-0.09268087858325103	0.5218497040769083	-0.0609784391157768	-0.2907679582896939	0.4560641535046874	-0.14570215919358603	-0.375869792576697	0.42570660305643465	-0.16315448275517014	-0.39571972401449673	0.4216183820821329	-0.20063397216668769	-0.41193727018427845	0.40545013856008616	-0.21045179203103406
